<svg xmlns="http://www.w3.org/2000/svg" width="245" height="136" viewBox="0 0 245 136">
  <g fill="#FF5A5F">
    <path d="M203.878705,7.68072358 C186.838043,7.22861521 168.104884,19.0089011 149.295052,39.033322 C142.757173,45.9933644 136.683239,53.4605704 131.23615,60.9278489 C129.330179,63.5406969 127.639774,65.9653596 126.184781,68.1386316 C125.906672,68.5540327 125.648437,68.9434868 125.410481,69.3056954 C125.667334,69.6644956 125.946126,70.0506204 126.246366,70.4627543 C127.799219,72.594326 129.597102,74.9722787 131.616846,77.5346949 C137.389059,84.8578076 143.773501,92.1809027 150.580962,99.0072797 C166.405067,114.875354 182.020006,125.587077 196.350766,128.796355 C209.958809,131.843785 221.855101,127.967768 232.027667,115.870824 C237.529892,109.327723 238.90029,102.906839 236.945125,96.4115715 C235.321369,91.0172807 231.441039,85.7049053 225.964409,80.7002006 C223.29258,78.2586048 220.419305,76.0535284 217.546445,74.1291329 C216.542309,73.4565089 215.611959,72.8682315 214.780518,72.3692453 C214.492765,72.1965516 214.239011,72.0479215 214.022387,71.9239557 C213.939191,71.8763454 212.16739,70.9043012 208.706984,69.007823 L214.062435,66.8247143 C214.512157,66.6314656 214.765715,66.5177515 215.053754,66.3840924 C215.888471,65.9967585 216.823492,65.5304345 217.833227,64.9859706 C220.723106,63.4277055 223.61339,61.5649973 226.298922,59.4102369 C231.486277,55.2481158 235.24962,50.5269601 237.034086,45.3181821 C239.191784,39.0199591 238.408898,32.1534333 234.011358,24.5213862 C224.840068,13.3167587 214.778361,7.96990397 203.878705,7.68072358 Z M229.647932,76.6310752 C235.79195,82.2456587 240.228896,88.32007 242.185239,94.8192528 C244.681702,103.112768 242.898944,111.46573 236.209426,119.420727 C224.706391,133.099831 210.733042,137.652588 195.159785,134.165061 C179.589735,130.678253 163.207598,119.440238 146.713661,102.90047 C139.742851,95.9102904 133.221304,88.4299318 127.32516,80.9495907 C125.260979,78.3307981 124.869654,60.3507733 126.820584,57.6762922 C132.393212,50.0369161 138.60725,42.3974675 145.313703,35.2579655 C165.099289,14.1947849 185.004274,1.6775996 204.023216,2.18219398 C216.638193,2.51688381 228.208643,8.69681226 238.386112,21.2070525 L238.628788,21.5577642 C243.909292,30.6173186 244.917499,39.2069107 242.210539,47.108407 C240.043643,53.4334811 235.647601,58.9483645 229.715121,63.7083436 C226.850005,66.0071949 223.799205,67.98859 220.741785,69.6590019 C223.776002,71.7016478 226.806586,74.0345706 229.647932,76.6310752 Z"/>
    <path d="M78.5332556,7.68072358 C61.492593,7.22861521 42.7594347,19.0089011 23.9496019,39.033322 C17.4117234,45.9933644 11.3377896,53.4605704 5.89070047,60.9278489 C3.98472951,63.5406969 2.29432426,65.9653596 0.839330851,68.1386316 C0.561222201,68.5540327 0.302986957,68.9434868 0.0650308563,69.3056954 C0.321884517,69.6644956 0.600676634,70.0506204 0.900916709,70.4627543 C2.45376956,72.594326 4.25165197,74.9722787 6.27139611,77.5346949 C12.0436097,84.8578076 18.4280509,92.1809027 25.2355122,99.0072797 C41.0596171,114.875354 56.6745558,125.587077 71.0053163,128.796355 C84.6133591,131.843785 96.5096513,127.967768 106.682217,115.870824 C112.184443,109.327723 113.554841,102.906839 111.599676,96.4115715 C109.975919,91.0172807 106.095589,85.7049053 100.618959,80.7002006 C97.9471299,78.2586048 95.0738557,76.0535284 92.2009952,74.1291329 C91.1968591,73.4565089 90.2665097,72.8682315 89.4350685,72.3692453 C89.1473157,72.1965516 88.8935611,72.0479215 88.6769373,71.9239557 C88.5937408,71.8763454 86.8219399,70.9043012 83.3615343,69.007823 L88.7169849,66.8247143 C89.1667077,66.6314656 89.420265,66.5177515 89.7083044,66.3840924 C90.5430209,65.9967585 91.4780424,65.5304345 92.4877774,64.9859706 C95.3776567,63.4277055 98.2679408,61.5649973 100.953472,59.4102369 C106.140827,55.2481158 109.90417,50.5269601 111.688636,45.3181821 C113.846334,39.0199591 113.063449,32.1534333 108.665908,24.5213862 C99.4946184,13.3167587 89.4329112,7.96990397 78.5332556,7.68072358 Z M104.302482,76.6310752 C110.4465,82.2456587 114.883446,88.32007 116.83979,94.8192528 C119.336252,103.112768 117.553494,111.46573 110.863976,119.420727 C99.3609413,133.099831 85.387592,137.652588 69.814335,134.165061 C54.2442856,130.678253 37.8621482,119.440238 21.3682113,102.90047 C14.3974009,95.9102904 7.87585391,88.4299318 1.97970984,80.9495907 C-0.0844712147,78.3307981 -0.475795603,60.3507733 1.4751343,57.6762922 C7.04776194,50.0369161 13.2618003,42.3974675 19.9682533,35.2579655 C39.7538395,14.1947849 59.6588245,1.6775996 78.6777663,2.18219398 C91.292743,2.51688381 102.863193,8.69681226 113.040663,21.2070525 L113.283339,21.5577642 C118.563843,30.6173186 119.572049,39.2069107 116.865089,47.108407 C114.698193,53.4334811 110.302151,58.9483645 104.369671,63.7083436 C101.504556,66.0071949 98.4537556,67.98859 95.3963353,69.6590019 C98.4305518,71.7016478 101.461136,74.0345706 104.302482,76.6310752 Z" transform="matrix(-1 0 0 1 118.383 0)"/>
    <path d="M123.03337,33.082433 L106.205399,6.66439559 C103.794067,2.87887208 97.5566615,0 92.0619311,0 L86.5111955,0 L86.5111955,3.66696418 L92.0619311,3.66696418 C96.394385,3.66696418 101.448977,5.99990936 103.13138,8.64109463 L119.959351,35.059132 L123.03337,33.082433 Z"/>
    <path d="M157.705368,33.082433 L140.877398,6.66439559 C138.466065,2.87887208 132.22866,0 126.73393,0 L121.183194,0 L121.183194,3.66696418 L126.73393,3.66696418 C131.066384,3.66696418 136.120976,5.99990936 137.803379,8.64109463 L154.631349,35.059132 L157.705368,33.082433 Z" transform="matrix(-1 0 0 1 278.889 0)"/>
    <path d="M119.041261,38.4499839 L119.041261,114.204697 C119.041261,115.864917 120.374129,117.198712 122.018304,117.198712 C123.659135,117.198712 124.995348,115.858246 124.995348,114.204697 L124.995348,38.4499839 C124.995348,36.7897642 123.66248,35.455969 122.018304,35.455969 C120.377474,35.455969 119.041261,36.7964351 119.041261,38.4499839 Z M114.783296,38.4499839 C114.783296,34.4350304 118.024533,31.1778441 122.018304,31.1778441 C126.015832,31.1778441 129.253313,34.4287702 129.253313,38.4499839 L129.253313,114.204697 C129.253313,118.219651 126.012075,121.476837 122.018304,121.476837 C118.020777,121.476837 114.783296,118.225911 114.783296,114.204697 L114.783296,38.4499839 Z"/>
  </g>
</svg>
